<svg id="レイヤー_1" data-name="レイヤー 1" xmlns="http://www.w3.org/2000/svg" xmlns:xlink="http://www.w3.org/1999/xlink" viewBox="0 0 650.94 508"><defs><style>.cls-1{fill:url(#名称未設定グラデーション_14);}</style><linearGradient id="名称未設定グラデーション_14" x1="123.64" y1="77.24" x2="510.69" y2="464.29" gradientUnits="userSpaceOnUse"><stop offset="0" stop-color="#8cc63f"/><stop offset="0.97" stop-color="#29abe2"/></linearGradient></defs><title>fileview-index</title><path class="cls-1" d="M272.15,128.93A82.93,82.93,0,1,1,189.22,46,82.93,82.93,0,0,1,272.15,128.93ZM517.42,54.81H367.25V205H517.42ZM100,469.84H278.41L189.22,315.37Zm375.28-121-20-56.54a4.78,4.78,0,0,0-9,0L426.91,349a4.78,4.78,0,0,1-4.41,3.23l-59.94,1.5a4.78,4.78,0,0,0-2.75,8.61l47.95,36a4.78,4.78,0,0,1,1.71,5.19L392.38,461a4.78,4.78,0,0,0,7.34,5.28l49.06-34.48a4.78,4.78,0,0,1,5.46,0l49.38,34a4.78,4.78,0,0,0,7.29-5.35l-17.63-57.31a4.78,4.78,0,0,1,1.66-5.2l47.61-36.45a4.78,4.78,0,0,0-2.83-8.58l-60-.94A4.78,4.78,0,0,1,475.32,348.81Zm18.28-71.24,5,1.15a4.82,4.82,0,0,0,5.77-3.62L510.83,247a4.82,4.82,0,0,0-3.62-5.77l-5-1.15a4.82,4.82,0,0,0-5.77,3.62L490,271.8A4.82,4.82,0,0,0,493.6,277.57ZM531.22,315l1.19,5.2a5,5,0,0,0,6,3.74l34.11-7.84a5,5,0,0,0,3.74-6l-1.19-5.2a5,5,0,0,0-6-3.74L535,309A5,5,0,0,0,531.22,315Zm-10.5-26.34,4.15,4.44a4.68,4.68,0,0,0,6.62.22l29.31-27.42a4.68,4.68,0,0,0,.22-6.62l-4.15-4.44a4.68,4.68,0,0,0-6.62-.22L520.94,282A4.68,4.68,0,0,0,520.72,288.64Z"/></svg>