<svg id="レイヤー_1" data-name="レイヤー 1" xmlns="http://www.w3.org/2000/svg" viewBox="0 0 80 80"><title>ig</title><path d="M52.76.35H27.24A27.27,27.27,0,0,0,0,27.58V52.42A27.27,27.27,0,0,0,27.24,79.65H52.76A27.27,27.27,0,0,0,80,52.42V27.58A27.27,27.27,0,0,0,52.76.35ZM72.05,52.79A18.93,18.93,0,0,1,53.14,71.7H26.86A18.93,18.93,0,0,1,7.95,52.79V27.21A18.93,18.93,0,0,1,26.86,8.3H53.14A18.93,18.93,0,0,1,72.05,27.21Z"/><path d="M40,20.09A19.91,19.91,0,1,0,59.91,40,19.93,19.93,0,0,0,40,20.09Zm0,32.63A12.73,12.73,0,1,1,52.73,40,12.74,12.74,0,0,1,40,52.73Z"/><circle cx="60.6" cy="19.78" r="4.65"/></svg>