<svg id="レイヤー_1" data-name="レイヤー 1" xmlns="http://www.w3.org/2000/svg" viewBox="0 0 80 80"><title>linkedin</title><path d="M73.83,0H6.17A6.17,6.17,0,0,0,0,6.17V73.83A6.17,6.17,0,0,0,6.17,80H73.83A6.17,6.17,0,0,0,80,73.83V6.17A6.17,6.17,0,0,0,73.83,0Zm-50,68.31H11.86V30H23.79ZM17.86,24.73a6.91,6.91,0,1,1,6.91-6.91A6.91,6.91,0,0,1,17.86,24.73ZM68,68.31H56.34V48.79s.43-6.4-2.74-8.38a6.94,6.94,0,0,0-7.78.36c-1.68,1.27-2.64,3.1-2.64,6.36a3.88,3.88,0,0,1,0,.55V68.31H31.21V30H43.14v4.23a15.13,15.13,0,0,1,6.12-4.47,15.81,15.81,0,0,1,13.87,1.82C67.78,34.76,68,42.47,68,42.47Z"/></svg>