<svg id="レイヤー_1" data-name="レイヤー 1" xmlns="http://www.w3.org/2000/svg" viewBox="0 0 35 11.33"><defs><style>.cls-1,.cls-2{fill:#157198;}.cls-1{stroke:#157198;stroke-miterlimit:10;stroke-width:0.05px;}.cls-3{fill:#a8d26f;}</style></defs><title>w-logo</title><path class="cls-1" d="M1.55,3.63H3l.7,2.91h0l.74-2.91H6.33l.77,3h0l.71-3H9.24L8,8.37H6.15L5.38,5.26h0L4.64,8.37H2.76Z"/><rect class="cls-2" x="9.63" y="2.49" width="1.37" height="1.14"/><rect class="cls-3" x="9.63" y="3.63" width="1.37" height="4.74"/><path class="cls-2" d="M11.53,7.09a4.58,4.58,0,0,0,.7.22A3.35,3.35,0,0,0,13,7.4a1.12,1.12,0,0,0,.46-.08A.29.29,0,0,0,13.64,7a.33.33,0,0,0-.2-.31,3.45,3.45,0,0,0-.61-.21,5.28,5.28,0,0,1-.55-.16,1.83,1.83,0,0,1-.43-.22,1.05,1.05,0,0,1-.33-.38,1.22,1.22,0,0,1-.13-.58,1.28,1.28,0,0,1,.17-.66A1.33,1.33,0,0,1,12,4a2.17,2.17,0,0,1,.62-.27,2.78,2.78,0,0,1,.7-.09,5.54,5.54,0,0,1,.84.06,3.52,3.52,0,0,1,.76.2L14.82,5a1.86,1.86,0,0,0-.57-.23,2.86,2.86,0,0,0-.65-.08,1.64,1.64,0,0,0-.51.07c-.14,0-.21.13-.21.24a.29.29,0,0,0,.19.27,3.07,3.07,0,0,0,.61.19l.59.16a1.9,1.9,0,0,1,.46.22,1.06,1.06,0,0,1,.36.4,1.32,1.32,0,0,1,.14.63,1.42,1.42,0,0,1-.18.74,1.27,1.27,0,0,1-.48.47,2.28,2.28,0,0,1-.67.24,4.08,4.08,0,0,1-.79.07,6.86,6.86,0,0,1-.91-.05,4.35,4.35,0,0,1-.74-.17Z"/><path class="cls-2" d="M15.34,3.8h.92V2.49h1.54V3.8h1.1V4.9h-1.1V6.57a1.15,1.15,0,0,0,.13.63.56.56,0,0,0,.49.2l.39,0,.09,0,.05,1-.19,0a6.78,6.78,0,0,1-.79.06,2.74,2.74,0,0,1-.85-.11A1.25,1.25,0,0,1,16.6,8a1.19,1.19,0,0,1-.28-.52,3,3,0,0,1-.08-.74V4.9h-.9Z"/><path class="cls-2" d="M22.63,5.06A2,2,0,0,0,22.09,5a1,1,0,0,0-.85.38,1.65,1.65,0,0,0-.3,1V8.34H19.38V3.8h1.43v.84h0a1.84,1.84,0,0,1,.54-.7,1.3,1.3,0,0,1,.81-.24,3.36,3.36,0,0,1,.53.05Z"/><path class="cls-2" d="M24.4,8.29a2.56,2.56,0,0,1-.84-.47A2.07,2.07,0,0,1,23,7.07a2.45,2.45,0,0,1-.2-1,2.47,2.47,0,0,1,.2-1,2.07,2.07,0,0,1,.56-.75,2.56,2.56,0,0,1,.84-.47,3.47,3.47,0,0,1,2.09,0,2.54,2.54,0,0,1,.84.47,2.05,2.05,0,0,1,.56.75,2.47,2.47,0,0,1,.19,1,2.45,2.45,0,0,1-.19,1,2.09,2.09,0,0,1-.55.75,2.51,2.51,0,0,1-.84.47,3.32,3.32,0,0,1-1.05.16A3.27,3.27,0,0,1,24.4,8.29ZM26.21,7a1.56,1.56,0,0,0,.25-.91,1.57,1.57,0,0,0-.25-.92,1,1,0,0,0-1.53,0,1.56,1.56,0,0,0-.25.92,1.55,1.55,0,0,0,.25.91,1,1,0,0,0,1.53,0Z"/><path class="cls-2" d="M28.61,3.8H30v.84h0a1.53,1.53,0,0,1,.66-.71,2,2,0,0,1,1-.24,2,2,0,0,1,.79.14,1.41,1.41,0,0,1,.54.4,1.71,1.71,0,0,1,.31.58,2.33,2.33,0,0,1,.1.69V8.34H31.88V6.15a1.54,1.54,0,0,0-.19-.88A.62.62,0,0,0,31.16,5q-1,0-1,1.42V8.34H28.61Z"/></svg>